<?xml version="1.0" encoding="utf-8"?>
<!-- Generator: Adobe Illustrator 27.8.1, SVG Export Plug-In . SVG Version: 6.00 Build 0)  -->
<svg version="1.1" id="icon" xmlns="http://www.w3.org/2000/svg" xmlns:xlink="http://www.w3.org/1999/xlink" x="0px" y="0px"
	 viewBox="0 0 31.3 27.3" style="enable-background:new 0 0 31.3 27.3;" xml:space="preserve">
<style type="text/css">
	.st0{fill:#4589FF;}
</style>
<g>
	<path class="st0" d="M15.7,7.9c-3.2,0-5.8,2.6-5.8,5.8v7.7c0,3.2,2.5,5.8,5.8,5.8s5.8-2.6,5.8-5.8v-7.7
		C21.4,10.5,18.9,7.9,15.7,7.9z M11.6,15.5h8.2v4.1h-8.2V15.5z M15.7,25.5c-2.2,0-4-1.9-4-4.1v-0.1h8.2v0.1
		C19.7,23.6,18,25.5,15.7,25.5z M19.8,13.8h-8.2v-0.1c0-2.3,1.8-4.1,4-4.1S19.8,11.5,19.8,13.8L19.8,13.8z"/>
	<path class="st0" d="M29.7,16.8l-6.4-6v8.8c0,2.1,1.7,3.8,3.8,3.8s3.8-1.7,3.8-3.8C31,18.5,30.6,17.5,29.7,16.8z M27.2,21.8
		c-1.2,0-2.2-0.9-2.2-2.2v-4.9l3.6,3.4l0,0c0.5,0.3,0.7,0.9,0.7,1.5C29.4,20.7,28.5,21.7,27.2,21.8L27.2,21.8z"/>
	<path class="st0" d="M0.3,19.6c0,2.1,1.7,3.8,3.8,3.8s3.8-1.7,3.8-3.8v-8.8l-6.4,6C0.8,17.5,0.3,18.5,0.3,19.6z M2.7,18.1L2.7,18.1
		l3.6-3.4v4.9c0,1.2-0.9,2.2-2.2,2.2s-2.2-0.9-2.2-2.2C2,19,2.3,18.4,2.7,18.1z"/>
	<path class="st0" d="M14.7,3.6c0-1.9-1.5-3.4-3.3-3.4S8,1.7,8,3.6s1.5,3.4,3.3,3.4S14.7,5.4,14.7,3.6z M9.7,3.6
		c0-0.9,0.8-1.7,1.7-1.7s1.7,0.8,1.7,1.7s-0.8,1.7-1.7,1.7S9.7,4.5,9.7,3.6z"/>
	<path class="st0" d="M20,0.2c-1.8,0-3.3,1.5-3.3,3.4s1.5,3.4,3.3,3.4c1.8,0,3.3-1.5,3.3-3.4S21.9,0.2,20,0.2z M20,5.3
		c-0.9,0-1.7-0.8-1.7-1.7s0.8-1.7,1.7-1.7c0.9,0,1.7,0.8,1.7,1.7C21.7,4.5,21,5.3,20,5.3z"/>
</g>
</svg>
