<?xml version="1.0" encoding="utf-8"?>
<!-- Generator: Adobe Illustrator 28.1.0, SVG Export Plug-In . SVG Version: 6.00 Build 0)  -->
<svg version="1.1" id="Artwork" xmlns="http://www.w3.org/2000/svg" xmlns:xlink="http://www.w3.org/1999/xlink" x="0px" y="0px"
	 viewBox="0 0 712 474" style="enable-background:new 0 0 712 474;" xml:space="preserve">
<style type="text/css">
	.st0{fill:#FFFFFF;}
</style>
<path id="IBM_xAE_" class="st0" d="M565.9,306.8c0-4.9,3.7-8.7,8.4-8.7c4.7,0,8.4,3.7,8.4,8.7c0,4.9-3.7,8.7-8.4,8.7
	C569.6,315.4,565.9,311.7,565.9,306.8z M580.7,307.3v-1.1c0-3.5-2.8-6.3-6.4-6.3c-3.7,0-6.4,2.8-6.4,6.3v1.1c0,3.5,2.8,6.3,6.4,6.3
	C577.9,313.6,580.7,310.9,580.7,307.3z M573,311.2h-2.1v-8.8h4c2,0,3,1.2,3,2.8c0,1.4-0.6,2.3-1.6,2.6l2,3.4h-2.4l-1.6-3H573V311.2z
	 M574.6,306.6c0.7,0,1-0.3,1-0.9v-0.6c0-0.6-0.4-0.9-1-0.9H573v2.5H574.6z M158,305h77v10h-77V305z M158,294h77v-10h-77V294z
	 M180,273h33v-10h-33V273z M180,252h33v-10h-33V252z M180,231h33v-10h-33V231z M213,200h-33v10h33V200z M158,189h77v-10h-77V189z
	 M158,168h77v-10h-77V168z M246,305v10h0h81v0c10.4,0,19.9-3.8,27.2-10H246L246,305z M246,284v10h0h117.4c1.8-3.1,3.2-6.5,4.2-10
	H246L246,284z M268,263v10h0h33v-10H268L268,263z M268,221L268,221l0,10h0h87.3c3.2-2.9,5.9-6.3,8.1-10H268z M367.5,189
	c-1-3.5-2.4-6.9-4.2-10H246h0v10h0H367.5z M268,200v10h0h33v-10H268L268,200z M332,210h35.8c0.8-3.2,1.2-6.6,1.2-10h-37V210z
	 M332,263v10h37v0c0-3.4-0.4-6.8-1.2-10H332z M355.3,242H268h0v10h0h95.4C361.2,248.3,358.5,244.9,355.3,242z M354.2,168
	c-7.3-6.2-16.8-10-27.2-10v0h-81h0v10h0H354.2z M378,315h55v-10h-55V315z M378,294h55v-10h-55V294z M400,273h33v-10h-33V273z
	 M400,252h33v-10h-33V252z M499,315h55v-10h-55V315z M499,294h55v-10h-55V294z M499,273h33v-10h-33V273z M532,242h-33v10h33V242z
	 M499,231h33v-10h-61.9l-3.5,10h29l3.4-9.5V231z M532,200h-54.6l-3.5,10h58V200z M492,158l-3.5,10H554v-10L492,158z M466,314.9
	l3.5-9.9h-7L466,314.9z M458.6,294h14.8l3.5-10h-21.9L458.6,294z M451.2,273h29.6l3.5-10h-36.7L451.2,273z M443.8,252h44.4l3.5-10
	h-51.5L443.8,252z M400,210h58l-3.5-10H400V210z M481.2,189H554v-10h-69.3L481.2,189z M447.3,179H378v10h72.8L447.3,179z M440,158
	l-62,0v10h65.5L440,158z M465.3,231l-3.5-10H400v10h33v-9.5l3.4,9.5H465.3z"/>
</svg>
