<?xml version="1.0" encoding="utf-8"?>
<!-- Generator: Adobe Illustrator 27.8.1, SVG Export Plug-In . SVG Version: 6.00 Build 0)  -->
<svg version="1.1" xmlns="http://www.w3.org/2000/svg" xmlns:xlink="http://www.w3.org/1999/xlink" x="0px" y="0px"
	 viewBox="0 0 459.3 443.3" style="enable-background:new 0 0 459.3 443.3;" xml:space="preserve">
<style type="text/css">
	.st0{fill:#D0E2FF;}
	.st1{fill:#0F62FE;}
	.st2{fill:#FFFFFF;}
</style>
<g id="Layer_1">
	<g>
		<circle class="st0" cx="229.6" cy="221.6" r="197.3"/>
		<g>
			<circle class="st1" cx="229.6" cy="221.6" r="163.6"/>
		</g>
		<path id="rocket_00000124144591269314336010000008525850352640590504_" class="st2" d="M236.7,315.9c-0.4,0-0.9-0.1-1.2-0.3
			c-0.8-0.5-1.3-1.3-1.3-2.2v-47.2c-0.8-0.2-1.5-0.5-2.2-0.9L196.1,301l-3.6-3.6l35.8-35.8c-0.8-1.4-1.3-3-1.3-4.8
			c0-5.3,4.3-9.6,9.6-9.6s9.6,4.3,9.6,9.6c0,4.4-3,8.1-7.1,9.3v42.7l30.2-18.1v-62.1c0-0.7,0.3-1.3,0.7-1.8l29.4-29.4
			c12.4-12.4,19.2-28.9,19.2-46.4v-18.6h-18.6c-17.5,0-34,6.8-46.4,19.2l-29.4,29.4c-0.5,0.5-1.1,0.7-1.8,0.7h-62L142.4,212h42.7
			c1.1-4.1,4.8-7.1,9.3-7.1c5.3,0,9.6,4.3,9.6,9.6s-4.3,9.6-9.6,9.6c-1.7,0-3.3-0.5-4.7-1.3l-35.8,35.8l-3.6-3.6l35.8-35.8
			c-0.4-0.7-0.7-1.4-0.9-2.2h-47.2c-0.9,0-1.8-0.5-2.2-1.3c-0.4-0.8-0.4-1.8,0-2.6l21.2-35.3c0.5-0.8,1.3-1.2,2.2-1.2h62.4
			l28.7-28.7c13.3-13.3,31.1-20.7,50-20.7h21.2c1.4,0,2.5,1.1,2.5,2.5v21.2c0,18.9-7.4,36.6-20.7,50l-28.7,28.7v62.4
			c0,0.9-0.5,1.7-1.2,2.2L238,315.5C237.6,315.8,237.1,315.9,236.7,315.9z M236.7,252.4c-2.5,0-4.5,2-4.5,4.5c0,2.5,2,4.5,4.5,4.5
			s4.5-2,4.5-4.5C241.2,254.4,239.2,252.4,236.7,252.4z M194.4,210.1c-2.5,0-4.5,2-4.5,4.5c0,2.5,2,4.5,4.5,4.5c2.5,0,4.5-2,4.5-4.5
			C198.9,212.1,196.8,210.1,194.4,210.1z M139.7,315.1l-3.6-3.6l92.2-92.2c-0.8-1.4-1.3-3-1.3-4.7c0-5.3,4.3-9.6,9.6-9.6
			s9.6,4.3,9.6,9.6s-4.3,9.6-9.6,9.6c-1.7,0-3.3-0.5-4.7-1.3L139.7,315.1z M236.7,210.1c-2.5,0-4.5,2-4.5,4.5c0,2.5,2,4.5,4.5,4.5
			s4.5-2,4.5-4.5C241.2,212.1,239.2,210.1,236.7,210.1z"/>
	</g>
</g>
<g id="Layer_2">
	<g>
		<circle class="st0" cx="229.6" cy="221.6" r="197.3"/>
		<g>
			<circle class="st1" cx="229.6" cy="221.6" r="163.6"/>
		</g>
		<path id="overview_1_" class="st2" d="M316.5,322c-12.5,0-22.9-9.5-24.2-21.7h-38.5c-1.3,12.2-11.6,21.7-24.2,21.7
			c-12.5,0-22.9-9.5-24.2-21.7h-38.5c-1.3,12.2-11.7,21.7-24.2,21.7c-13.4,0-24.3-10.9-24.3-24.3s10.9-24.3,24.3-24.3
			c12.5,0,22.9,9.5,24.2,21.7h38.5c1.3-12.2,11.7-21.7,24.2-21.7c12.5,0,22.9,9.5,24.2,21.7h38.5c1.3-12.2,11.6-21.7,24.2-21.7
			c13.4,0,24.3,10.9,24.3,24.3S329.9,322,316.5,322z M316.5,278.5c-10.5,0-19.1,8.6-19.1,19.1s8.6,19.1,19.1,19.1
			c10.5,0,19.1-8.6,19.1-19.1S327,278.5,316.5,278.5z M229.6,278.5c-10.5,0-19.1,8.6-19.1,19.1s8.6,19.1,19.1,19.1
			c10.5,0,19.1-8.6,19.1-19.1S240.2,278.5,229.6,278.5z M142.8,278.5c-10.5,0-19.1,8.6-19.1,19.1s8.6,19.1,19.1,19.1
			s19.1-8.6,19.1-19.1S153.3,278.5,142.8,278.5z M229.6,242.3c-64.9,0-89.1-59-89.3-59.6c-0.2-0.6-0.2-1.3,0-1.9
			c0.2-0.6,24.4-59.6,89.3-59.6c64.9,0,89.1,59,89.3,59.6c0.2,0.6,0.2,1.3,0,1.9C318.7,183.4,294.5,242.3,229.6,242.3z M145.6,181.8
			c3.4,7.4,27.2,55.3,84,55.3c56.8,0,80.7-47.9,84-55.3c-3.4-7.4-27.2-55.3-84-55.3C172.8,126.5,149,174.4,145.6,181.8z
			 M229.6,227.9c-25.4,0-46-20.7-46-46s20.7-46,46-46s46,20.7,46,46S255,227.9,229.6,227.9z M229.6,141c-22.5,0-40.8,18.3-40.8,40.8
			s18.3,40.8,40.8,40.8s40.8-18.3,40.8-40.8S252.1,141,229.6,141z M229.6,206.1c-13.4,0-24.3-10.9-24.3-24.3s10.9-24.3,24.3-24.3
			s24.3,10.9,24.3,24.3S243,206.1,229.6,206.1z M229.6,162.7c-10.5,0-19.1,8.6-19.1,19.1c0,10.5,8.6,19.1,19.1,19.1
			c10.5,0,19.1-8.6,19.1-19.1C248.7,171.3,240.2,162.7,229.6,162.7z"/>
	</g>
</g>
</svg>
